<svg xmlns="http://www.w3.org/2000/svg" xmlns:xlink="http://www.w3.org/1999/xlink" width="692" height="599"><g fill="none" fill-rule="evenodd"><path d="M237.544 424.64C370.262 411.12 506.377 275.223 526 169S355.094 36.038 229.928 50.37 24 136.48 24 242.703 104.827 438.16 237.544 424.64z" fill="#e1ebf5"/><path d="M436.396 571.358C555.477 581.545 657 468.403 657 380.808S570.338 237 442.82 237 178.3 360.404 170 448s147.315 113.17 266.396 123.358z" fill="#dcfbff"/><use xlink:href="#B" fill="#b28b67"/><path d="M211.464 162.813c6.33.542 11.982 2.47 13.584 3.615 0 5.986-1.16 7.762-11.08 7.606-2.437 1.286-4.3 3.5-6.262 6.402.863 12.016 3.148 18.024 6.853 18.024 5.558 0 10.274-3.525 12.712-3.525 1.778 0 1.38 2.222.202 3.87-.972 1.36-5.707 2.67-5.707 4.777s3.74.477 3.74 1.727c0 2.067.657 5.955-2.935 5.955-3.635 0-14.06-1.323-15.845-6.713-1.153-3.478-1.898-10.685-2.236-21.62-.22-.028-.445-.042-.673-.042a5.64 5.64 0 0 0-5.64 5.634c0 1.58.65 3.007 1.7 4.03a85.43 85.43 0 0 1-4.444 5.746c-6.296-3.773-10.968-14.82-4.813-25.43 1.7-5.198 5.553-7.975 10.102-9.264 3.685-1.54 7.5-1.713 10.74-.8zM180.32 310.587L214.4 430.05l24.865 88.05H257.4l-26.422-207.512z" fill="#191847"/><path d="M171.206 310.587c-.788 61.572-3.476 95.155-4.304 100.75S153.56 452.518 129.36 518.1h18.787l51.596-106.763c3.588-8.26 14.66-41.844 31.337-100.75h-59.874z" fill="#2f3676"/><g fill="#191847"><use xlink:href="#C"/><use xlink:href="#C" x="109.04"/></g><path d="M137.992 275.33l20.583.077L133.61 355.1c-2.175 5.385 2.428 13.585 4.396 17.992-6.41 2.866-5.728-7.747-13.815-3.988-7.382 3.43-12.997 9.646-21.525 4.4-1.05-.646-2.197-3.08.58-4.98 6.916-4.737 16.883-13.028 18.23-15.757 1.836-3.722 7.342-29.53 16.518-77.425h0zm130.212 23.484l26.628 25.948c7.748 3.3 14.096 6.946 19.045 10.936 1.113 1.34 2.324 3.9-2.912 2.76s-10.795-2.124-11.78-.423 1.916 4.307.097 6.533c-1.212 1.484-5.3-3.236-12.233-14.16l-27.7-16.307 8.844-15.286z" fill="#b28b67"/><path d="M200.713 217.002l8.128-1.393c12.805 45.213 78.594 76.032 82.633 92.934 1.48 6.198-2.985 9.332-.678 11.22l-10.565 7.726c-1.79-2.085-5.607 1.73-13.58-.94s-65.938-56.01-65.938-109.547z" fill="#69a1ac"/><path d="M186.257 207.562l25.318 1.768a3.76 3.76 0 0 1 3.498 3.813l-.01.2-.676 9.62c-.957 59.9 33.705 75.17 25.987 99.2-6.372 19.83-67.36 41.146-77.914 21.708-4.272-7.87-6.21-17.386-6.43-27.732-2.697 7.95-4.83 14.793-6.4 20.53-2.707 9.897-13.202 11.47-13.202 15.282h0L122.6 348.13c.938-5.18-5.58-7.702-3.833-19.273 7.83-51.847 28.87-89.43 63.12-112.747l.355-5.058c.146-2.07 1.942-3.633 4.014-3.49z" fill="#89c5cc"/><g transform="matrix(-1 0 0 1 624 120)"><use xlink:href="#B" x="-60" y="-135" fill="#57331f"/><path d="M130.503 38.072c5.142-21.114 34.25-8.006 39.85-11.568 1.224 7.665-2.725 13.846-16.608 12.65-3.062 1.7-5.24 4.916-7.864 9.12a5.63 5.63 0 0 0-2.062-.389 5.64 5.64 0 0 0-5.64 5.634c0 1.58.65 3.008 1.7 4.03-1.305 1.84-2.768 3.76-4.444 5.745-6.248-3.744-10.897-14.65-4.952-25.187z" fill="#2e2f2f"/><path fill="#191847" d="M120.32 175.587L154.4 295.05l24.865 88.05H197.4l-26.422-207.512z"/><path d="M111.206 175.587c-.788 61.572-3.476 95.155-4.304 100.75S93.56 317.518 69.36 383.1h18.787l51.596-106.763c3.588-8.26 14.66-41.844 31.337-100.75h-59.874z" fill="#2f3676"/><g fill="#e4e4e4"><use xlink:href="#D"/><use xlink:href="#D" x="109.04"/></g><path d="M127.004 76.995l26.31 4.064c0 14.78 11.773 28.61 19.22 40.507 11.577 18.496 32.178 38.997 18.97 66.475-11.9 24.76-42.902 28.78-93.002 12.062 0-13.336 10.973-26.742 11.323-42.957.333-15.436 3.222-62.204 15.28-78.003l.67-2.148.834.392.395-.392z" fill="#ffdbd2"/><path d="M157.79 181.02l3.424-18.167c14.017 15.822 22.115 23.825 24.294 24.01 4.097.345 7.124-3.284 7.986-2.264 1.425 4.225-2.6 14.802-10.29 16.34-3.673.734-9.357-6.832-11.7-9.513-.92-1.054-5.493-4.523-13.714-10.405h0zm24.213-48.36c3.634 0 5.585 1.5 7.734 4.528s4.182 17.306.732 17.306-17.902-5.52-17.902-9.23 9.86-5.282 9.86-8.075-4.06-4.528-.426-4.528z" fill="#57331f"/><path d="M150.455 194.823l-.115.415-.544 1.945c-41.173-28.745-41.188-63.58-28.94-102.625-9.233 38.44-5.477 70.86 29.6 100.265z" fill-opacity=".2" fill="#000"/></g><circle fill="#ffdbd2" cx="72" cy="135" r="72"/><path d="M80.816 151.915c1.902 0 3.466 1.444 3.655 3.295l.02.375-.001 8.074h2.205c2.03 0 3.673 1.643 3.673 3.67 0 1.9-1.446 3.463-3.298 3.65l-.376.02h-47.02c-2.03 0-3.673-1.643-3.673-3.67 0-1.9 1.446-3.463 3.298-3.65l.376-.02h2.204l.001-8.074c0-1.9 1.446-3.463 3.298-3.65l.376-.02h35.265zm-3.673 7.34H49.224v4.404h27.918l.001-4.404zM48.5 140.17c2.03 0 3.673 1.643 3.673 3.67 0 1.9-1.446 3.463-3.298 3.65l-.376.02h-8.816c-2.03 0-3.673-1.643-3.673-3.67 0-1.9 1.446-3.463 3.298-3.65l.376-.02H48.5zm38.552-37.105c1.435-1.435 3.76-1.436 5.193-.002h0l8.81 8.81c1.433 1.433 1.432 3.758-.002 5.193h0l-9.156 9.155 15.04 15.026a3.67 3.67 0 0 1 0 5.191c-1.34 1.338-3.454 1.427-4.897.268l-.298-.268-15.037-15.023-9.16 9.163c-1.385 1.385-3.6 1.434-5.04.145l-.15-.143-8.81-8.81c-1.433-1.433-1.432-3.758.002-5.193h0zM49.72 122.29l.298.268 6.233 6.228a3.67 3.67 0 0 1 0 5.191c-1.34 1.338-3.454 1.427-4.897.268l-.298-.268-6.233-6.228a3.67 3.67 0 0 1 0-5.191c1.34-1.338 3.454-1.427 4.897-.268zm39.915-11.438L71.32 129.17l3.62 3.62 18.316-18.316-3.62-3.62z" fill="#2e2f2f"/><circle fill="#fffecb" cx="624" cy="531" r="68"/><path d="M644.065 497.696c.13 2.074-1.44 3.86-3.502 3.99-3.72.233-6.69 1.338-8.84 3.25 10.013 2.414 18.403 9.43 22.582 18.99h0l.243.578.234.08c5.037 1.85 8.612 6.577 8.87 12.117h0l.015.643c0 5.814-3.655 10.84-8.885 12.76h0l-.234.078-.243.58c-5.1 11.662-16.466 19.54-29.4 19.893h0l-.905.012c-13.307 0-25.087-7.972-30.305-19.905h0l-.246-.58-.23-.078c-5.037-1.85-8.612-6.577-8.87-12.117h0l-.015-.643c0-5.814 3.655-10.84 8.885-12.76h0l.23-.08.246-.578c5.1-11.662 16.466-19.54 29.4-19.893l-.13.004c3.245-5.793 9.197-9.365 17.132-9.863a3.75 3.75 0 0 1 3.968 3.522zm-23.62 14.1l-.054.008c-9.46 1.35-17.437 7.93-20.598 17.086-.45 1.3-1.57 2.25-2.92 2.478h0l-.477.1a6.06 6.06 0 0 0 .477 11.854h0l.398.09a3.75 3.75 0 0 1 2.521 2.388C603.348 556.1 613 563.14 624 563.14s20.652-7.04 24.208-17.342c.45-1.3 1.57-2.25 2.92-2.478h0l.477-.1a6.06 6.06 0 0 0-.477-11.854h0l-.398-.09a3.75 3.75 0 0 1-2.521-2.388c-3.117-9.03-10.918-15.553-20.204-17.027-.318 1.65-.41 3.492-.27 5.513.144 2.073-1.41 3.872-3.473 4.016a3.75 3.75 0 0 1-3.994-3.492c-.15-2.15-.086-4.19.177-6.104zm-7.875 25.55c2.706 0 4.9 2.206 4.9 4.927s-2.193 4.927-4.9 4.927-4.9-2.206-4.9-4.927 2.193-4.927 4.9-4.927zm22.86 0c2.706 0 4.9 2.206 4.9 4.927s-2.193 4.927-4.9 4.927-4.9-2.206-4.9-4.927 2.193-4.927 4.9-4.927z" fill="#2e2f2f"/><circle fill="#d1d5fd" cx="423" cy="60" r="60"/><path d="M428.417 32.5a3.75 3.75 0 0 1 2.681 1.128l13.333 13.636a3.75 3.75 0 0 1 1.069 2.622V83.75a3.75 3.75 0 0 1-3.75 3.75h-37.5a3.75 3.75 0 0 1-3.75-3.75v-47.5a3.75 3.75 0 0 1 3.75-3.75h24.167zM423 40h-15v40h30V52.5h-11.25a3.75 3.75 0 0 1-3.745-3.551l-.005-.2V40z" fill="#2e2f2f"/><circle fill="#c7e1c9" cx="222" cy="547" r="52"/><path d="M220.893 523.166c4.746 0 9.232 1.265 13.194 3.743a2.77 2.77 0 0 1 .88 3.815c-.8 1.297-2.516 1.69-3.81.88-3.074-1.923-6.544-2.9-10.262-2.9-10.643 0-19.362 8.727-19.362 19.38s8.72 19.38 19.362 19.38 19.362-8.727 19.362-19.38c0-1.802-.2-3.566-.58-5.087a2.77 2.77 0 0 1 2.013-3.357c1.482-.37 2.984.53 3.354 2.014.494 1.977.746 4.2.746 6.43 0 13.7-11.196 24.917-24.894 24.917S196 561.793 196 548.083s11.196-24.917 24.894-24.917zm26.296 3.026a2.77 2.77 0 0 1 .202 3.69l-.202.225-24.34 24.363c-1.008 1.01-2.6 1.076-3.687.202l-.225-.202-8.85-8.86a2.77 2.77 0 0 1 0-3.915c1.008-1.01 2.6-1.076 3.687-.202l.225.202 6.895 6.903 22.385-22.407c1.08-1.08 2.83-1.08 3.912 0z" fill="#2e2f2f"/></g><defs><path id="B" d="M223.695 172.684c5.447 10.142 4.8 35.868-2.24 37.68-2.807.723-8.788-1.048-14.875-4.713l3.82 27h-22.56l7.766-36.16c-4.33-5.078-7.262-11.302-6.772-18.276 1.41-20.094 29.414-15.674 34.86-5.532z"/><path id="C" d="M127.68 532.183l.933-15.023c5.462 1.596 12.303.97 20.523-1.878 8.84 6.254 19.965 10.524 33.38 12.81a1.88 1.88 0 0 1 1.493 2.367l-1.29 4.54h-53.174l-1.866-2.817z"/><path id="D" d="M70.197 386.293c-1.052 2.804-1.577 4.902-1.577 6.294 0 1.693.282 4.164.847 7.413h53.018c1.378-4.55.582-7.006-2.386-7.37l-7.398-.983-24.643-10.974a.94.94 0 0 0-1.241.476l-.01.024-1.584 3.838c-2.748 1.28-4.98 1.92-6.7 1.92-1.396 0-3.324-.563-5.784-1.7h0a1.88 1.88 0 0 0-2.543 1.049z"/></defs></svg>